<?xml version="1.0" standalone="no"?>
<!DOCTYPE svg PUBLIC "-//W3C//DTD SVG 20010904//EN"
 "http://www.w3.org/TR/2001/REC-SVG-20010904/DTD/svg10.dtd">
<svg version="1.0" xmlns="http://www.w3.org/2000/svg"
 width="180.000000pt" height="180.000000pt" viewBox="0 0 180.000000 180.000000"
 preserveAspectRatio="xMidYMid meet">

<g transform="translate(0.000000,180.000000) scale(0.100000,-0.100000)"
fill="#000000" stroke="none">
<path d="M1210 1410 c-14 -5 -50 -18 -80 -29 -30 -12 -69 -21 -85 -21 -37 0
-71 -22 -61 -38 4 -7 29 -12 55 -12 l48 0 27 -78 c40 -118 37 -136 -30 -200
-123 -116 -190 -141 -251 -95 -38 28 -38 87 1 118 35 28 35 77 1 110 -24 25
-27 25 -190 25 l-166 0 -10 -30 -11 -30 -109 0 c-127 0 -175 -14 -185 -54 -4
-17 0 -35 11 -52 21 -32 14 -65 -31 -139 -40 -68 -42 -85 -11 -85 22 0 23 -4
24 -62 0 -147 97 -254 237 -265 100 -8 188 31 241 107 l27 38 128 4 c115 3
132 5 159 26 17 12 32 22 34 22 2 0 16 -11 31 -25 30 -28 62 -32 85 -11 9 8
33 16 54 17 37 4 40 2 52 -35 49 -141 225 -209 363 -140 91 45 145 134 146
239 0 75 -32 153 -83 197 -21 19 -31 33 -23 36 6 2 12 14 12 27 0 35 -85 70
-175 70 -38 0 -79 -2 -90 -5 -16 -4 -20 0 -18 18 2 12 -15 58 -37 102 -38 75
-39 79 -20 85 44 14 65 109 34 153 -16 23 -56 28 -104 12z m88 -66 c3 -43 -15
-74 -44 -74 -11 0 -14 15 -14 61 0 60 0 60 28 57 24 -3 27 -8 30 -44z m-902
-495 c-4 -23 -18 -55 -31 -71 -14 -16 -25 -38 -25 -48 0 -10 -7 -20 -15 -24
-17 -6 -21 -71 -5 -81 5 -3 55 -7 109 -8 99 -1 100 -2 73 -19 -38 -25 -125
-24 -168 2 -33 21 -74 90 -74 127 0 59 42 125 95 149 45 20 48 18 41 -27z
m1099 18 c69 -27 115 -88 115 -155 0 -46 -35 -109 -73 -132 -69 -42 -179 -19
-223 48 -24 35 -26 137 -3 169 l16 23 21 -39 c12 -22 19 -46 16 -55 -10 -26
16 -76 48 -92 41 -21 85 -3 104 43 13 29 12 37 -2 64 -9 17 -29 36 -44 42 -19
7 -33 24 -43 48 -8 21 -12 40 -9 43 8 9 44 6 77 -7z m-973 -24 c32 -35 48 -66
48 -92 0 -18 -6 -21 -40 -21 -27 0 -40 4 -40 14 0 7 -7 19 -15 26 -11 9 -14
23 -9 49 11 61 18 64 56 24z"/>
</g>
</svg>
